<svg viewBox="0 0 32 32" fill="none" xmlns="http://www.w3.org/2000/svg">
  <g stroke="#111827" stroke-width="1.2" stroke-linecap="round" stroke-linejoin="round">
    <path d="M13.5 3.2L14.7 4.2L16 2.8L17.3 4.2L18.5 3.2L19 5.1H13L13.5 3.2Z"/>
    <path d="M9.1 4.8L6.8 7.2L6.6 11.4L10.2 10L12.6 13"/>
    <path d="M22.9 4.8L25.2 7.2L25.4 11.4L21.8 10L19.4 13"/>
    <path d="M12.6 13L10.2 16.6L10.4 22L14.2 24.1L16 26.3L17.8 24.1L21.6 22L21.8 16.6L19.4 13"/>
    <path d="M14.8 16.6L13.8 17.8V19.6L14.8 20.5"/>
    <path d="M17.2 16.6L18.2 17.8V19.6L17.2 20.5"/>
    <path d="M15.2 21.6L16 22.2L16.8 21.6"/>
    <path d="M16 22.2V23.4"/>
  </g>
</svg>
