<svg viewBox="0 0 272 88" xmlns="http://www.w3.org/2000/svg" fill="none">
  <g transform="translate(0,2) scale(0.84)" stroke="currentColor" stroke-width="3" stroke-linecap="round" stroke-linejoin="round">
    <path d="M40 8L44 12L48 7L52 12L56 8L58 15H38L40 8Z" />
    <path d="M26 11L18 17L16 28L22 40L35 46L41 41L34 31L20 38L18 23L26 11Z" />
    <path d="M70 11L78 17L80 28L74 40L61 46L55 41L62 31L76 38L78 23L70 11Z" />
    <path d="M35 46L28 57L30 73L43 80L48 87L53 80L66 73L68 57L61 46" />
    <path d="M42 50L36 56V66L42 70" />
    <path d="M54 50L60 56V66L54 70" />
    <path d="M45 74L48 77L51 74" />
    <path d="M48 77V83" />
    <path d="M48 83L44 80" />
    <path d="M48 83L52 80" />
  </g>
  <text x="88" y="53" fill="currentColor" font-size="32" font-weight="600" font-family="Manrope, Arial, sans-serif" letter-spacing="-0.4">Habit Rabbit</text>
</svg>
